<svg xmlns="http://www.w3.org/2000/svg" version="1.1" xmlns:xlink="http://www.w3.org/1999/xlink" xmlns:svgjs="http://svgjs.dev/svgjs" width="1000" height="623" viewBox="0 0 1000 623"><g transform="matrix(1,0,0,1,-0.6060606060606233,42.71492831145457)"><svg viewBox="0 0 396 247" data-background-color="#d9bca9" preserveAspectRatio="xMidYMid meet" height="623" width="1000" xmlns="http://www.w3.org/2000/svg" xmlns:xlink="http://www.w3.org/1999/xlink"><g id="tight-bounds" transform="matrix(1,0,0,1,0.2400000000000091,-0.09999999999999432)"><svg viewBox="0 0 395.52 247.2" height="247.2" width="395.52"><g><svg></svg></g><g><svg viewBox="0 0 395.52 247.2" height="247.2" width="395.52"><g transform="matrix(1,0,0,1,113.11939522780487,47.215199999999996)"><svg viewBox="0 0 169.28120954439024 152.7696" height="152.7696" width="169.28120954439024"><g><svg viewBox="0 0 169.28120954439024 152.7696" height="152.7696" width="169.28120954439024"><g><svg viewBox="0 0 169.28120954439024 152.7696" height="152.7696" width="169.28120954439024"><g><svg viewBox="0 0 169.28120954439024 152.7696" height="152.7696" width="169.28120954439024"><g><svg viewBox="0 0 169.28120954439024 152.7696" height="152.7696" width="169.28120954439024"><path d="M168.885 32.766C168.089 16.909 165.821 12.5 165.821 12.5 158.857-3.833 150.167-0.312 142.36 2.034 128.576 2.13 114.848 5.618 101.096 7.489 72.232 7.775 43.12 3.081 14.399 14.657 11.701 18.209-2.799 15.355 0.48 34.796 1.339 42.883 4.475 51.859 4.379 59.28 4.809 60.58 5.406 57.599 5.661 59.47 6.552 64.513 8.008 62.134 9.202 65.115 7.539 73.076 8.733 79.704 9.871 86.65 7.865 88.457 5.295 87.601 4.141 93.595 4.021 97.94 3.377 97.116 2.668 96.925 2.151 96.798 1.109 97.274 1.284 98.638 1.881 103.3-0.682 105.996 0.926 110.563-0.181 115.51 1.69 119.792 1.435 125.152 1.403 126.23 1.578 127.15 1.857 127.403 3.09 128.767 1.292 131.431 1.483 134.317 14.136 154.044 27.864 140.406 40.828 149.477 44.195 143.134 41.664 151.729 43.009 150.397 44.059 148.843 44.823 155.281 46.009 151.633 46.192 150.587 45.914 148.113 46.566 148.589 46.908 148.843 47.211 148.779 47.259 147.32 47.33 145.132 46.702 146.496 46.534 145.354 48.341 139.582 47.895 153.314 49.59 152.743 49.511 151.063 49.017 148.652 50.028 148.969 51.031 146.559 51.063 144.561 51.954 149.984 51.986 151.158 52.145 151.982 52.4 152.553 55.185 146.654 57.955 154.646 60.875 151.982 62.666 149.065 64.385 153.568 66.199 152.458 66.836 151.57 67.481 149.984 68.093 152.648 75.598 153.219 83.596 150.841 90.711 152.743 109.723 149.191 130.041 154.202 150.087 149.509 154.815 147.701 159.725 145.132 164.333 143.07 164.333 143.07 168.065 137.425 168.065 112.053S168.861 89.853 168.98 69.651C169.1 49.448 169.657 48.624 168.861 32.766Z" opacity="1" fill="#000000" data-fill-palette-color="tertiary"></path><g transform="matrix(1,0,0,1,34.46482176,16.210552)"><svg width="100.35156602439024" viewBox="4.5 -32.79999923706055 27.350000381469727 32.79999923706055" height="120.348496" data-palette-color="#d9bca9"><path d="M8.25 0L4.5 0 4.5-32.8 9.5-32.8 15.8-15.3Q16.4-13.6 16.98-11.88 17.55-10.15 18.15-8.45L18.15-8.45 18.35-8.45Q18.95-10.15 19.48-11.88 20-13.6 20.6-15.3L20.6-15.3 26.8-32.8 31.85-32.8 31.85 0 27.95 0 27.95-18.05Q27.95-20.25 28.15-22.9 28.35-25.55 28.5-27.75L28.5-27.75 28.3-27.75 25.7-20.3 19.5-3.3 16.75-3.3 10.55-20.3 7.95-27.75 7.75-27.75Q7.9-25.55 8.08-22.9 8.25-20.25 8.25-18.05L8.25-18.05 8.25 0Z" opacity="1" transform="matrix(1,0,0,1,0,0)" fill="#d9bca9" class="undefined-text-0" data-fill-palette-color="quaternary" id="text-0"></path></svg></g></svg></g></svg></g></svg></g><g></g></svg></g></svg></g><g><path d="M162.163 18.804A84.641 84.641 0 0 1 233.357 18.804L222.504 18.804A73.787 73.787 0 0 0 173.016 18.804L162.163 18.804M162.163 228.396A84.641 84.641 0 0 0 233.357 228.396L222.504 228.396A73.787 73.787 0 0 1 173.016 228.396L162.163 228.396" fill="#000000" stroke="transparent" data-fill-palette-color="tertiary"></path></g></svg></g><defs></defs></svg><rect width="395.52" height="247.2" fill="none" stroke="none" visibility="hidden"></rect></g></svg></g></svg>